<svg width="96" height="22" viewBox="0 0 96 22" fill="none" xmlns="http://www.w3.org/2000/svg">
<path fill-rule="evenodd" clip-rule="evenodd" d="M38.8045 11.9751L34.2884 15.3029L35.0745 11.9841H32.8038L30.5537 21.2691H33.0559L33.7286 18.2115L34.9602 17.4407L37.0693 21.2691H39.9082L36.9603 15.8757L39.8371 13.9133H43.2939L41.6439 21.2691H44.0172L45.7499 13.9133H49.1866L49.6477 11.9749H42.6766H40.0344H38.8045V11.9751ZM51.7991 19.4228C51.7991 19.4228 51.4677 19.4228 51.0004 19.4228L51.5611 16.8274C51.8976 16.8274 51.727 16.8274 52.3698 16.8274C54.4842 16.7957 53.6437 19.4373 51.7991 19.4228ZM52.0166 14.843C52.1423 14.2734 52.5259 11.9364 52.5259 11.9364H50.1182L47.9924 21.2691H51.4331C56.4467 21.1678 58.3916 14.4699 52.0166 14.843ZM32.1132 11.0663L34.0897 3.54428H36.9667L38.5016 7.47554L35.5085 11.0445L38.2168 11.0401L44.776 3.21674L43.0798 11.0663H45.2768L46.6342 5.93504L47.3249 11.0663H49.7862L52.9418 5.73728L51.706 11.0663H54.0696L56.3736 1.56628H52.9639L49.3818 7.55013L48.6156 1.56628H46.1569H45.1313H43.4103L40.3486 5.18216L38.7436 1.56628H31.9913L29.8145 11.0663H32.1132ZM71.9303 5.09884H67.9477L68.7817 1.56628H66.286L64.1041 11.0388H66.6063L67.46 7.14822H71.436L70.6987 11.0388H73.0232L75.1852 1.56628H72.8567L71.9303 5.09884ZM57.6258 11.9364L55.4144 21.2691H58.0543L60.2271 11.9364H57.6258ZM63.5728 7.10368L63.9673 5.19793L59.0541 5.19559L59.4957 3.34013H65.2567L65.6294 1.56628H57.2962L55.0382 11.0663H63.3719L63.8872 8.8462L58.1868 8.83405L58.5998 7.10368H63.5728ZM23.3222 11.0663L24.1173 8.2785C24.5056 8.2785 27.0392 8.2785 27.0392 8.2785C30.0054 8.07904 31.9524 4.72762 30.2032 2.40441C29.6182 1.92578 28.9525 1.5535 28.0013 1.56628H23.2294L20.9962 11.0663H23.3222ZM28.0378 17.9085L26.7406 17.8767L28.506 16.0215L28.0378 17.9085ZM29.1636 11.9841L20.9312 21.2691H23.5197C23.5197 21.2691 24.6884 20.0205 24.8495 19.8658H27.5505L27.1998 21.2691H29.7794L32.0119 11.9751L29.1636 11.9841ZM18.8417 16.7358L19.456 14.0154C19.8175 14.0154 21.7669 14.0154 21.7669 14.0154C23.508 14.1017 22.6068 16.7358 21.2458 16.7358C21.246 16.7358 19.3876 16.7358 18.8417 16.7358ZM17.9742 8.3143H14.6817L18.8625 3.71028L17.9742 8.3143ZM16.0722 16.7456C15.6839 16.7456 13.5685 16.7456 13.5685 16.7456C12.3154 16.5696 12.4968 13.8506 14.6221 14.0039C14.6221 14.0039 16.099 14.0039 16.6152 14.0039L16.0722 16.7456ZM22.2478 12.0436C22.2478 12.0436 20.3923 12.0436 19.8485 12.0436C20.004 11.3695 22.4693 -1.82092e-07 22.4693 -1.82092e-07H19.0467L3.6066 16.9685L4.74515 12.0484H2.35357L9.59397e-07 21.2691H2.66369L7.00653 16.4856L5.96654 21.2691H8.3815C8.3815 21.2691 10.5849 12.8474 10.6133 12.7167C10.6956 12.6398 12.6988 10.5118 12.8359 10.3552H17.3985L17.1606 12.0467C16.7978 12.0467 14.3336 12.0467 14.3336 12.0467C12.9329 12.0695 11.2226 13.0146 10.505 14.4066C10.3623 14.7951 10.2418 15.2616 10.2227 15.7547C10.2019 16.3512 10.309 17 10.6507 17.5187C10.9441 18.0116 12.0826 18.6733 13.3484 18.6733C13.3484 18.6733 14.9245 18.6733 15.6232 18.6733C15.5002 19.2186 14.7797 22 14.7797 22H17.5175C17.5175 22 18.2724 19.0447 18.3897 18.6569C18.7506 18.6569 20.9501 18.6569 20.9501 18.6569C25.0115 18.8007 27.3334 12.6652 22.2478 12.0436ZM24.4939 6.3248L25.1084 3.60416C25.4695 3.60416 27.4163 3.60416 27.4163 3.60416C29.1591 3.69132 28.2564 6.3248 26.8984 6.3248C26.8984 6.3248 25.0372 6.3248 24.4939 6.3248ZM87.5388 8.83405C87.5388 8.83405 87.2043 8.83405 86.7391 8.83405L87.3022 6.24042C87.6372 6.24042 87.466 6.24042 88.1081 6.24042C90.7268 6.31031 89.1587 8.9129 87.5388 8.83405ZM87.8354 4.19274C87.9565 3.62334 88.4106 1.57396 88.4106 1.57396L86.0054 1.56628L83.8386 11.0388H87.165C92.236 10.9433 94.2185 3.88183 87.8354 4.19274ZM85.4189 1.60592H75.9229L75.4607 3.54428H78.8859L77.0848 11.0388H79.6967L81.5245 3.54428H84.9578L85.4189 1.60592ZM93.4663 1.56628L91.2253 11.0388H93.8642L96 1.56628H93.4663Z" fill="#DA2429"/>
</svg>
